<mxfile host="Electron" agent="Mozilla/5.0 (Windows NT 10.0; Win64; x64) AppleWebKit/537.36 (KHTML, like Gecko) draw.io/26.2.2 Chrome/134.0.6998.178 Electron/35.1.2 Safari/537.36" version="26.2.2">
  <diagram name="Page-1" id="M7yE3xHhSxCxnhPODTf5">
    <mxGraphModel dx="788" dy="524" grid="1" gridSize="10" guides="1" tooltips="1" connect="1" arrows="1" fold="1" page="1" pageScale="1" pageWidth="850" pageHeight="1100" math="0" shadow="0">
      <root>
        <mxCell id="0" />
        <mxCell id="1" parent="0" />
        <mxCell id="8mWAfpCp0kgymWHkfLbE-11" style="edgeStyle=orthogonalEdgeStyle;rounded=0;orthogonalLoop=1;jettySize=auto;html=1;exitX=1;exitY=0.25;exitDx=0;exitDy=0;entryX=0;entryY=0.25;entryDx=0;entryDy=0;" edge="1" parent="1" source="8mWAfpCp0kgymWHkfLbE-7" target="8mWAfpCp0kgymWHkfLbE-8">
          <mxGeometry relative="1" as="geometry">
            <Array as="points">
              <mxPoint x="220" y="190" />
              <mxPoint x="310" y="190" />
              <mxPoint x="310" y="195" />
            </Array>
          </mxGeometry>
        </mxCell>
        <mxCell id="8mWAfpCp0kgymWHkfLbE-15" style="edgeStyle=orthogonalEdgeStyle;rounded=0;orthogonalLoop=1;jettySize=auto;html=1;exitX=0.5;exitY=1;exitDx=0;exitDy=0;entryX=0.5;entryY=0;entryDx=0;entryDy=0;" edge="1" parent="1" source="8mWAfpCp0kgymWHkfLbE-7" target="8mWAfpCp0kgymWHkfLbE-9">
          <mxGeometry relative="1" as="geometry" />
        </mxCell>
        <mxCell id="8mWAfpCp0kgymWHkfLbE-7" value="A Job Seeker" style="html=1;whiteSpace=wrap;" vertex="1" parent="1">
          <mxGeometry x="100" y="160" width="120" height="60" as="geometry" />
        </mxCell>
        <mxCell id="8mWAfpCp0kgymWHkfLbE-19" style="edgeStyle=orthogonalEdgeStyle;rounded=0;orthogonalLoop=1;jettySize=auto;html=1;exitX=0.5;exitY=1;exitDx=0;exitDy=0;entryX=0.5;entryY=0;entryDx=0;entryDy=0;" edge="1" parent="1" source="8mWAfpCp0kgymWHkfLbE-8" target="8mWAfpCp0kgymWHkfLbE-10">
          <mxGeometry relative="1" as="geometry" />
        </mxCell>
        <mxCell id="8mWAfpCp0kgymWHkfLbE-23" style="edgeStyle=orthogonalEdgeStyle;rounded=0;orthogonalLoop=1;jettySize=auto;html=1;exitX=0;exitY=0.75;exitDx=0;exitDy=0;entryX=1;entryY=0.75;entryDx=0;entryDy=0;" edge="1" parent="1" source="8mWAfpCp0kgymWHkfLbE-8" target="8mWAfpCp0kgymWHkfLbE-7">
          <mxGeometry relative="1" as="geometry" />
        </mxCell>
        <mxCell id="8mWAfpCp0kgymWHkfLbE-8" value="A Job Portal" style="html=1;whiteSpace=wrap;" vertex="1" parent="1">
          <mxGeometry x="400" y="180" width="120" height="60" as="geometry" />
        </mxCell>
        <mxCell id="8mWAfpCp0kgymWHkfLbE-17" style="edgeStyle=orthogonalEdgeStyle;rounded=0;orthogonalLoop=1;jettySize=auto;html=1;exitX=1;exitY=0.5;exitDx=0;exitDy=0;entryX=0;entryY=0.5;entryDx=0;entryDy=0;" edge="1" parent="1" source="8mWAfpCp0kgymWHkfLbE-9" target="8mWAfpCp0kgymWHkfLbE-10">
          <mxGeometry relative="1" as="geometry" />
        </mxCell>
        <mxCell id="8mWAfpCp0kgymWHkfLbE-9" value="A Resume DB" style="html=1;whiteSpace=wrap;" vertex="1" parent="1">
          <mxGeometry x="100" y="330" width="120" height="60" as="geometry" />
        </mxCell>
        <mxCell id="8mWAfpCp0kgymWHkfLbE-10" value="An HR System" style="html=1;whiteSpace=wrap;" vertex="1" parent="1">
          <mxGeometry x="410" y="330" width="120" height="60" as="geometry" />
        </mxCell>
        <mxCell id="8mWAfpCp0kgymWHkfLbE-12" value="1:browseJobs()" style="text;html=1;align=center;verticalAlign=middle;resizable=0;points=[];autosize=1;strokeColor=none;fillColor=none;" vertex="1" parent="1">
          <mxGeometry x="210" y="160" width="110" height="30" as="geometry" />
        </mxCell>
        <mxCell id="8mWAfpCp0kgymWHkfLbE-13" value="2:browseJobs()" style="text;html=1;align=center;verticalAlign=middle;resizable=0;points=[];autosize=1;strokeColor=none;fillColor=none;" vertex="1" parent="1">
          <mxGeometry x="295" y="168" width="110" height="30" as="geometry" />
        </mxCell>
        <mxCell id="8mWAfpCp0kgymWHkfLbE-16" value="3:uploadResume()" style="text;html=1;align=center;verticalAlign=middle;resizable=0;points=[];autosize=1;strokeColor=none;fillColor=none;" vertex="1" parent="1">
          <mxGeometry x="40" y="258" width="120" height="30" as="geometry" />
        </mxCell>
        <mxCell id="8mWAfpCp0kgymWHkfLbE-18" value="4:storeResume()" style="text;html=1;align=center;verticalAlign=middle;resizable=0;points=[];autosize=1;strokeColor=none;fillColor=none;" vertex="1" parent="1">
          <mxGeometry x="250" y="330" width="110" height="30" as="geometry" />
        </mxCell>
        <mxCell id="8mWAfpCp0kgymWHkfLbE-20" value="5:forwardApplication()" style="text;html=1;align=center;verticalAlign=middle;resizable=0;points=[];autosize=1;strokeColor=none;fillColor=none;" vertex="1" parent="1">
          <mxGeometry x="340" y="280" width="140" height="30" as="geometry" />
        </mxCell>
        <mxCell id="8mWAfpCp0kgymWHkfLbE-21" value="" style="curved=1;endArrow=classic;html=1;rounded=0;entryX=0.817;entryY=-0.033;entryDx=0;entryDy=0;entryPerimeter=0;" edge="1" parent="1" target="8mWAfpCp0kgymWHkfLbE-10">
          <mxGeometry width="50" height="50" relative="1" as="geometry">
            <mxPoint x="530" y="372" as="sourcePoint" />
            <mxPoint x="520" y="322" as="targetPoint" />
            <Array as="points">
              <mxPoint x="610" y="360" />
              <mxPoint x="560" y="310" />
            </Array>
          </mxGeometry>
        </mxCell>
        <mxCell id="8mWAfpCp0kgymWHkfLbE-22" value="6:processApplication()" style="text;html=1;align=center;verticalAlign=middle;resizable=0;points=[];autosize=1;strokeColor=none;fillColor=none;" vertex="1" parent="1">
          <mxGeometry x="580" y="318" width="140" height="30" as="geometry" />
        </mxCell>
        <mxCell id="8mWAfpCp0kgymWHkfLbE-24" value="7:notifyResult()" style="text;html=1;align=center;verticalAlign=middle;resizable=0;points=[];autosize=1;strokeColor=none;fillColor=none;" vertex="1" parent="1">
          <mxGeometry x="215" y="210" width="100" height="30" as="geometry" />
        </mxCell>
        <mxCell id="8mWAfpCp0kgymWHkfLbE-25" value="" style="curved=1;endArrow=classic;html=1;rounded=0;entryX=0.25;entryY=0;entryDx=0;entryDy=0;exitX=0;exitY=0.5;exitDx=0;exitDy=0;" edge="1" parent="1" source="8mWAfpCp0kgymWHkfLbE-7" target="8mWAfpCp0kgymWHkfLbE-7">
          <mxGeometry width="50" height="50" relative="1" as="geometry">
            <mxPoint x="105" y="190" as="sourcePoint" />
            <mxPoint x="125" y="150" as="targetPoint" />
            <Array as="points">
              <mxPoint x="80" y="190" />
              <mxPoint x="30" y="140" />
            </Array>
          </mxGeometry>
        </mxCell>
        <mxCell id="8mWAfpCp0kgymWHkfLbE-26" value="8:receiveNotification()" style="text;html=1;align=center;verticalAlign=middle;resizable=0;points=[];autosize=1;strokeColor=none;fillColor=none;" vertex="1" parent="1">
          <mxGeometry x="10" y="120" width="140" height="30" as="geometry" />
        </mxCell>
      </root>
    </mxGraphModel>
  </diagram>
</mxfile>
